<?xml version="1.0" encoding="UTF-8" standalone="no"?>
<!-- Created with Inkscape (http://www.inkscape.org/) -->

<svg
   xmlns:dc="http://purl.org/dc/elements/1.1/"
   xmlns:cc="http://creativecommons.org/ns#"
   xmlns:rdf="http://www.w3.org/1999/02/22-rdf-syntax-ns#"
   xmlns:svg="http://www.w3.org/2000/svg"
   xmlns="http://www.w3.org/2000/svg"
   xmlns:sodipodi="http://sodipodi.sourceforge.net/DTD/sodipodi-0.dtd"
   xmlns:inkscape="http://www.inkscape.org/namespaces/inkscape"
   width="92.538429mm"
   height="93.277596mm"
   viewBox="0 0 327.89207 330.51116"
   id="svg2"
   version="1.1"
   inkscape:version="0.91 r13725"
   sodipodi:docname="examen_icon.svg">
  <title
     id="title5171">Laboratorio</title>
  <defs
     id="defs4">
    <marker
       inkscape:stockid="Arrow1Lstart"
       orient="auto"
       refY="0"
       refX="0"
       id="marker4477"
       style="overflow:visible"
       inkscape:isstock="true">
      <path
         id="path4479"
         d="M 0,0 5,-5 -12.5,0 5,5 0,0 Z"
         style="fill:#1a1a1a;fill-opacity:1;fill-rule:evenodd;stroke:none;stroke-width:1pt;stroke-opacity:1"
         transform="matrix(0.8,0,0,0.8,10,0)"
         inkscape:connector-curvature="0" />
    </marker>
    <marker
       inkscape:stockid="Arrow1Lstart"
       orient="auto"
       refY="0"
       refX="0"
       id="marker4455"
       style="overflow:visible"
       inkscape:isstock="true">
      <path
         id="path4457"
         d="M 0,0 5,-5 -12.5,0 5,5 0,0 Z"
         style="fill:#1a1a1a;fill-opacity:1;fill-rule:evenodd;stroke:none;stroke-width:1pt;stroke-opacity:1"
         transform="matrix(0.8,0,0,0.8,10,0)"
         inkscape:connector-curvature="0" />
    </marker>
    <marker
       inkscape:stockid="Arrow1Lstart"
       orient="auto"
       refY="0"
       refX="0"
       id="Arrow1Lstart"
       style="overflow:visible"
       inkscape:isstock="true">
      <path
         id="path4185"
         d="M 0,0 5,-5 -12.5,0 5,5 0,0 Z"
         style="fill:#1a1a1a;fill-opacity:1;fill-rule:evenodd;stroke:none;stroke-width:1pt;stroke-opacity:1"
         transform="matrix(0.8,0,0,0.8,10,0)"
         inkscape:connector-curvature="0" />
    </marker>
  </defs>
  <sodipodi:namedview
     id="base"
     pagecolor="#ffffff"
     bordercolor="#666666"
     borderopacity="1.0"
     inkscape:pageopacity="0.0"
     inkscape:pageshadow="2"
     inkscape:zoom="1.4"
     inkscape:cx="161.76866"
     inkscape:cy="191.93973"
     inkscape:document-units="px"
     inkscape:current-layer="g3347"
     showgrid="false"
     fit-margin-top="0"
     fit-margin-left="0"
     fit-margin-right="0"
     fit-margin-bottom="0"
     inkscape:window-width="1366"
     inkscape:window-height="705"
     inkscape:window-x="-8"
     inkscape:window-y="-8"
     inkscape:window-maximized="1" />
  <metadata
     id="metadata7">
    <rdf:RDF>
      <cc:Work
         rdf:about="">
        <dc:format>image/svg+xml</dc:format>
        <dc:type
           rdf:resource="http://purl.org/dc/dcmitype/StillImage" />
        <dc:title>Laboratorio</dc:title>
      </cc:Work>
    </rdf:RDF>
  </metadata>
  <g
     inkscape:label="Capa 1"
     inkscape:groupmode="layer"
     id="layer1"
     transform="translate(-210.21761,-273.4095)">
    <g
       id="g3347"
       transform="translate(134.35029,115.15738)"
       style="fill:#af1a1a;fill-opacity:1">
      <g
         id="g5184"
         transform="matrix(1.073744,0,0,1.073744,-23.367585,-28.154473)"
         style="fill:#ffffff;fill-opacity:1">
        <path
           style="fill:#ffffff;fill-opacity:1"
           d="m 136.08121,472.57015 c -4.14972,-4.58539 -4.618,-17.54462 -4.618,-127.79811 0,-91.7092 0.84562,-123.54091 3.34842,-126.0437 1.84163,-1.84164 8.11992,-3.34843 13.95176,-3.34843 l 10.60333,0 0,118.58995 0,118.58995 41.53858,0 41.53857,0 1.31724,7.67347 c 0.72448,4.2204 2.257,9.87087 3.40559,12.55658 1.94794,4.5548 -1.56099,4.88311 -52.18958,4.88311 -49.03984,0 -54.72358,-0.49244 -58.89591,-5.10282 z m 125.76947,-0.47604 -7.612,-5.98759 0,-39.04584 c 0,-21.47521 1.24602,-41.37405 2.76893,-44.21964 1.52291,-2.84559 6.85946,-6.51034 11.85899,-8.14389 9.96895,-3.25727 70.15974,-2.91875 73.48673,0.41329 1.13988,1.14161 -0.20719,4.59467 -2.99344,7.67347 -4.52796,5.00333 -8.57601,5.59781 -38.1177,5.59781 l -33.05175,0 0,35.97604 c 0,30.23136 0.70479,36.24649 4.41374,37.66974 8.36138,3.20857 61.27517,1.85712 64.78698,-1.65471 1.84163,-1.84163 3.34842,-7.90104 3.34842,-13.46537 0,-7.18356 2.02263,-12.01709 6.97588,-16.67042 l 6.97588,-6.5535 0,19.70972 c 0,15.2375 -1.20889,21.20445 -5.32775,26.29717 -5.04163,6.23365 -7.33011,6.63585 -42.61433,7.48936 -34.6496,0.83817 -37.82493,0.47849 -44.89858,-5.08564 z m 29.31701,-34.22093 -17.38494,-17.54086 7.57745,-7.57745 7.57745,-7.57745 10.45565,10.20966 10.45565,10.20967 19.95415,-20.31355 19.95415,-20.31356 7.30994,7.30994 7.30996,7.30995 -27.91226,27.91225 -27.91226,27.91225 -17.38494,-17.54085 z M 190.06059,400.9383 c 0,-3.42674 4.80561,-4.18552 26.50834,-4.18552 21.70274,0 26.50834,0.75878 26.50834,4.18552 0,3.42675 -4.8056,4.18553 -26.50834,4.18553 -21.70273,0 -26.50834,-0.75878 -26.50834,-4.18553 z m 0,-30.60248 c 0,-3.59616 5.14457,-4.27691 32.32157,-4.27691 24.61435,0 32.04557,0.83171 31.1641,3.48794 -0.81219,2.44745 -10.45401,3.72329 -32.32157,4.27691 -26.48031,0.6704 -31.1641,0.14618 -31.1641,-3.48794 z m 157.51535,-4.07797 c -1.45796,-1.42528 -7.04564,-2.99485 -12.41706,-3.48794 l -9.76623,-0.89653 -0.74392,-73.24673 -0.74392,-73.24674 11.04952,0 c 19.24466,0 19.73701,2.06887 19.73701,82.93625 0,38.7932 -1.00453,70.5331 -2.23228,70.5331 -1.22776,0 -3.42516,-1.16614 -4.88312,-2.59141 z M 190.06099,341.64333 c 3.7e-4,-4.47924 4.3854,-4.88312 53.01706,-4.88312 48.63195,0 53.01662,0.40386 53.01628,4.88312 -3.4e-4,4.47923 -4.38535,4.88311 -53.01706,4.88311 -48.63199,0 -53.01664,-0.40385 -53.01628,-4.88311 z m -4e-4,-29.99628 c 0,-3.57361 7.75098,-4.18553 53.01668,-4.18553 45.26571,0 53.01668,0.61192 53.01668,4.18553 0,3.57361 -7.75097,4.18553 -53.01668,4.18553 -45.2657,0 -53.01668,-0.61192 -53.01668,-4.18553 z m 0,-30.69387 c 0,-3.57361 7.75098,-4.18553 53.01668,-4.18553 45.26571,0 53.01668,0.61192 53.01668,4.18553 0,3.57361 -7.75097,4.18553 -53.01668,4.18553 -45.2657,0 -53.01668,-0.61192 -53.01668,-4.18553 z M 175.14613,243.7613 c -6.60164,-7.29472 -6.28939,-31.58456 0.48483,-37.71515 2.80656,-2.5399 7.89321,-4.61799 11.30367,-4.61799 3.4853,0 10.10997,-4.21712 15.12722,-9.62964 11.21979,-12.10373 20.25249,-15.48353 41.38052,-15.48353 18.48152,0 24.87204,2.4223 37.30465,14.14016 4.60408,4.33939 13.39369,9.52586 19.53246,11.52548 l 11.16141,3.63567 0.83706,17.68202 c 0.50342,10.63417 -0.46692,19.25321 -2.43443,21.62391 -2.64248,3.184 -15.46208,3.9419 -66.67544,3.9419 -57.881,0 -63.80622,-0.44449 -68.02195,-5.10283 z m 75.74413,-34.52016 c 1.84163,-1.84163 3.34842,-5.9853 3.34842,-9.20816 0,-13.15567 -17.31427,-17.68758 -22.66971,-5.93366 -5.97283,13.10893 9.3477,25.11541 19.32129,15.14182 z"
           id="path5188"
           inkscape:connector-curvature="0" />
        <path
           style="fill:#ffffff;fill-opacity:1"
           d="m 134.35173,469.48536 c -1.86269,-3.48049 -2.88852,-48.01755 -2.88852,-125.4076 l 0,-120.01034 6.20157,-4.34375 c 3.41087,-2.38907 9.68916,-4.34376 13.95176,-4.34376 l 7.75018,0 0,118.58995 0,118.58995 40.54768,0 c 30.00481,0 40.82706,0.90689 41.62221,3.48794 0.591,1.91837 1.83118,6.941 2.75594,11.16141 l 1.6814,7.67346 -54.36684,0 c -50.89511,0 -54.5513,-0.34466 -57.25538,-5.39726 z m 125.46765,-0.18344 c -5.02396,-5.02397 -5.5807,-9.30116 -5.5807,-42.87415 0,-33.50363 0.5877,-38.04058 5.78323,-44.64563 5.72826,-7.28231 6.13488,-7.35218 42.78539,-7.35218 20.35119,0 37.77948,0.77731 38.72952,1.72736 0.95005,0.95005 0.0343,3.42039 -2.03491,5.48964 -2.63175,2.63175 -13.70161,3.99926 -36.83929,4.55093 l -33.07701,0.78865 -1.41924,30.69387 c -0.78058,16.88163 -0.69024,33.83302 0.20077,37.66975 l 1.62,6.97588 34.67864,0 34.67863,0 0.838,-12.94877 c 0.54967,-8.49338 2.7099,-14.64282 6.2783,-17.87217 5.34424,-4.83649 5.44028,-4.57861 5.44028,14.60905 0,28.20298 -0.95049,28.76847 -48.35328,28.76847 -34.42716,0 -38.6919,-0.54428 -43.72833,-5.5807 z m 32.63922,-32.38911 c -13.01598,-12.91259 -15.29293,-16.54266 -13.02934,-20.77223 4.96935,-9.28531 8.77306,-9.04914 19.00204,1.17984 l 10.10718,10.10718 20.21294,-20.07805 43.49716,-45.47899 15.90775,14.10347 -50.76789,50.64057 c -14.2581,14.22235 -26.58438,25.94521 -27.49745,25.94521 -0.91306,0 -8.75764,-7.04115 -17.43239,-15.647 z M 190.06059,400.9383 c 0,-3.74077 3.84189,-4.27552 25.81075,-3.59265 14.81207,0.46042 25.81076,1.99135 25.81076,3.59265 0,1.60131 -10.99869,3.13224 -25.81076,3.59265 -21.96886,0.68288 -25.81075,0.14812 -25.81075,-3.59265 z m 0,-29.29869 c 0,-1.69202 12.14642,-2.79035 30.85855,-2.79035 19.86182,0 30.24399,0.99436 29.13401,2.79035 -0.97152,1.57196 -14.44579,2.79035 -30.85854,2.79035 -17.56245,0 -29.13402,-1.10828 -29.13402,-2.79035 z m 148.58623,-9.60456 -11.859,-2.62868 0,-72.01323 0,-72.01323 7.83774,0 c 17.5106,0 17.45005,-0.28448 16.62705,78.12985 l -0.7468,71.15397 z M 190.06059,340.94574 c 0,-1.75968 19.0674,-2.79035 51.62151,-2.79035 32.5541,0 51.6215,1.03067 51.6215,2.79035 0,1.75968 -19.0674,2.79035 -51.6215,2.79035 -32.55411,0 -51.62151,-1.03067 -51.62151,-2.79035 z m 0,-29.29869 c 0,-3.56964 7.59596,-4.18553 51.62151,-4.18553 44.02555,0 51.6215,0.61589 51.6215,4.18553 0,3.56964 -7.59595,4.18553 -51.6215,4.18553 -44.02555,0 -51.62151,-0.61589 -51.62151,-4.18553 z m 0,-29.29869 c 0,-1.75969 19.0674,-2.79036 51.62151,-2.79036 32.5541,0 51.6215,1.03067 51.6215,2.79036 0,1.75968 -19.0674,2.79035 -51.6215,2.79035 -32.55411,0 -51.62151,-1.03067 -51.62151,-2.79035 z m -12.17265,-37.04397 c -3.93142,-2.87472 -4.70525,-7.0041 -4.02126,-21.45843 0.84668,-17.89243 0.8504,-17.89956 10.61321,-20.36733 5.37143,-1.35776 14.23254,-6.78749 19.69137,-12.06608 20.81312,-20.12593 57.60377,-20.05308 76.46898,0.1514 4.66281,4.99383 12.23779,9.98498 16.83328,11.09145 13.02983,3.13722 15.36254,6.58017 15.36254,22.67419 0,23.20331 -1.00268,23.53454 -71.24152,23.53454 -43.2994,0 -60.12405,-0.94011 -63.7066,-3.55974 z M 254.1405,207.1923 c 1.58869,-2.96849 2.88853,-6.73547 2.88853,-8.37106 0,-4.33825 -10.49864,-14.13519 -15.14762,-14.13519 -10.24364,0 -16.81367,17.14889 -9.40747,24.55509 5.30576,5.30577 18.39281,4.06823 21.66656,-2.04884 z"
           id="path5186"
           inkscape:connector-curvature="0"
           sodipodi:nodetypes="sscsscccssscssssssssscsscccssssssssccccsssssssssssssccccssccsssssssssssssssssssssssssssss" />
      </g>
    </g>
  </g>
</svg>
