<?xml version="1.0" encoding="UTF-8" standalone="no"?>
<!-- Created with Inkscape (http://www.inkscape.org/) -->

<svg
   xmlns:dc="http://purl.org/dc/elements/1.1/"
   xmlns:cc="http://creativecommons.org/ns#"
   xmlns:rdf="http://www.w3.org/1999/02/22-rdf-syntax-ns#"
   xmlns:svg="http://www.w3.org/2000/svg"
   xmlns="http://www.w3.org/2000/svg"
   xmlns:sodipodi="http://sodipodi.sourceforge.net/DTD/sodipodi-0.dtd"
   xmlns:inkscape="http://www.inkscape.org/namespaces/inkscape"
   width="206.02769mm"
   height="205.41663mm"
   viewBox="0 0 730.01939 727.85418"
   id="svg2"
   version="1.1"
   inkscape:version="0.91 r13725"
   sodipodi:docname="tablet_firma_icon.svg">
  <defs
     id="defs4" />
  <sodipodi:namedview
     id="base"
     pagecolor="#ffffff"
     bordercolor="#666666"
     borderopacity="1.0"
     inkscape:pageopacity="0.0"
     inkscape:pageshadow="2"
     inkscape:zoom="0.24748737"
     inkscape:cx="574.95823"
     inkscape:cy="443.21943"
     inkscape:document-units="px"
     inkscape:current-layer="layer1"
     showgrid="false"
     fit-margin-top="0"
     fit-margin-left="0"
     fit-margin-right="0"
     fit-margin-bottom="0"
     inkscape:window-width="1366"
     inkscape:window-height="705"
     inkscape:window-x="-8"
     inkscape:window-y="-8"
     inkscape:window-maximized="1" />
  <metadata
     id="metadata7">
    <rdf:RDF>
      <cc:Work
         rdf:about="">
        <dc:format>image/svg+xml</dc:format>
        <dc:type
           rdf:resource="http://purl.org/dc/dcmitype/StillImage" />
        <dc:title></dc:title>
      </cc:Work>
    </rdf:RDF>
  </metadata>
  <g
     inkscape:label="Capa 1"
     inkscape:groupmode="layer"
     id="layer1"
     transform="translate(-17.843193,-10.030876)">
    <path
       style="fill:#ffffff;fill-opacity:1"
       d="M 45.644364,731.64765 C 37.864496,727.53882 31.105695,721.00467 25.838707,712.50034 l -7.995514,-12.90993 0,-225.41576 0,-225.41575 6.049282,-11.32399 c 3.327102,-6.2282 11.034114,-14.62349 17.126672,-18.65617 l 11.077391,-7.33221 149.846442,-0.73033 149.84645,-0.73033 -2.33209,10.05841 c -2.35717,10.16645 -0.94689,25.12444 3.1123,33.0109 1.54094,2.99386 0.37262,6.02365 -3.85405,9.99438 -6.02782,5.66285 -6.88453,5.6981 -138.48572,5.6981 l -132.420376,0 0,205.21799 0,205.21799 274.512396,0 274.51238,0 0.31577,-128.59439 c 0.17377,-70.72691 0.13299,-130.0417 -0.0903,-131.81066 -0.22334,-1.76895 2.98819,-4.97158 7.13682,-7.11691 4.31485,-2.23131 16.50677,-16.82321 28.48817,-34.09609 11.51984,-16.60749 21.85782,-31.2342 22.97328,-32.50381 1.11545,-1.26958 1.82886,77.88594 1.58538,175.90114 l -0.44277,178.20949 -6.04927,11.32398 c -3.32711,6.22821 -11.03484,14.62348 -17.12829,18.65618 l -11.079,7.3322 -297.54475,0.70014 -297.544727,0.70014 -11.810167,-6.2374 z M 126.9468,624.66482 c -4.03507,-6.15827 -3.86478,-7.60605 2.87646,-24.45655 11.34519,-28.35846 19.44558,-64.50585 22.73106,-101.43566 1.67027,-18.77427 3.54413,-36.81527 4.16414,-40.09108 1.48575,-7.85005 12.40001,-10.60751 20.63317,-5.21292 5.75282,3.76941 6.35129,6.45648 7.9304,35.60729 2.44564,45.14745 10.75001,83.501 18.07978,83.501 4.7132,0 13.03646,-10.79671 13.03646,-16.91053 0,-6.8497 7.46962,-15.0715 13.6926,-15.0715 9.21013,0 13.80818,7.13368 15.92354,24.70465 1.15774,9.61661 3.90148,21.78442 6.09718,27.03949 l 3.99224,9.55474 142.53213,0 c 155.0734,0 150.90841,-0.40458 150.90841,14.65843 0,15.08371 4.47307,14.65843 -154.17713,14.65843 -133.53232,0 -146.35541,-0.38558 -152.39055,-4.58207 -8.50167,-5.91158 -14.90685,-13.61893 -18.66791,-22.46302 -2.77969,-6.53644 -3.68539,-6.86727 -12.29303,-4.4906 -13.80104,3.81066 -23.75332,0.44814 -33.95732,-11.47291 l -9.08803,-10.61734 -6.97626,20.94779 c -3.83694,11.52129 -8.82492,23.58712 -11.08438,26.81299 -5.76759,8.23436 -18.35592,7.87682 -23.96296,-0.68063 z m 182.19199,-61.53773 c -2.66365,-5.84605 -1.94129,-9.07219 5.22158,-23.32023 4.57206,-9.09457 9.5979,-21.3329 11.16852,-27.19626 8.45557,-31.56623 5.22455,-90.2445 -7.85124,-142.58653 -7.12696,-28.52892 -8.72966,-24.58101 21.4659,-52.87665 36.36018,-34.0724 57.34365,-59.32903 51.84682,-62.40522 -6.9518,-3.8904 -12.68972,-18.12749 -11.14425,-27.65128 2.07491,-12.78621 106.9194,-161.903155 126.26752,-179.586215 66.13286,-60.441722 169.9701,-46.0009645 219.8353,30.572717 26.14435,40.147628 29.17545,96.128928 7.58201,140.032038 -9.17797,18.66031 -107.4921,159.28119 -116.87043,167.16231 -9.8141,8.24734 -19.83038,9.89851 -29.55146,4.87152 l -8.13227,-4.20534 -6.85796,10.86371 c -9.19014,14.55814 -28.31512,53.40836 -36.01788,73.16624 -3.42883,8.79506 -8.10321,17.90189 -10.38753,20.23737 -2.83208,2.89552 -15.22254,5.63078 -38.94928,8.59823 -65.80113,8.22959 -114.41508,27.09454 -142.69367,55.37312 -12.25959,12.25959 -17.51373,15.73511 -23.78775,15.73511 -6.04168,0 -8.82462,-1.6943 -11.14393,-6.78464 z M 461.5938,472.6965 c 15.39136,-2.4595 31.88209,-5.03344 36.64608,-5.71985 4.76398,-0.68642 8.66179,-2.36673 8.66179,-3.73398 0,-1.36726 4.06951,-11.20736 9.04332,-21.86689 4.97385,-10.6595 10.90814,-23.57856 13.18734,-28.70901 2.27919,-5.13045 8.45449,-17.01321 13.7229,-26.40615 6.4294,-11.46289 8.69658,-17.96035 6.89543,-19.7615 -1.47589,-1.4759 -31.20974,-22.78677 -66.07521,-47.35751 l -63.39176,-44.67407 -10.41994,12.46478 c -5.73096,6.85564 -22.95176,24.85537 -38.26846,39.99939 -24.63743,24.35969 -27.66757,28.35475 -26.27907,34.64719 7.25539,32.87999 9.45442,44.84564 12.08267,65.7463 1.659,13.19259 3.29416,29.14711 3.6337,35.45453 l 0.61738,11.46797 15.80206,-22.51301 c 14.0408,-20.00378 15.82369,-24.00641 15.99629,-35.91172 0.24067,-16.60205 7.85089,-25.94331 23.25618,-28.54601 19.77339,-3.34071 36.85521,14.93406 31.47954,33.67795 -3.30557,11.52582 -9.64064,17.8852 -20.99437,21.07498 -7.82422,2.19818 -12.24663,6.62533 -24.22958,24.25528 -8.06214,11.86144 -15.02286,22.53358 -15.46827,23.71582 -0.4454,1.18224 9.74888,-1.22148 22.65394,-5.34157 12.90507,-4.12011 36.05669,-9.50339 51.44804,-11.96292 z M 623.06841,274.74429 c 17.18147,-24.55287 33.4604,-47.83562 36.17541,-51.73947 l 4.93637,-7.09791 -69.49569,-48.55286 c -38.22263,-26.70407 -70.45017,-47.49653 -71.61671,-46.20547 -1.16657,1.29106 -17.802,24.78405 -36.96765,52.20664 l -34.8466,49.85926 68.46789,47.99089 c 37.65734,26.39501 69.2869,48.03356 70.28794,48.08572 1.00101,0.0522 15.87758,-19.99393 33.05904,-44.5468 z m 62.47441,-99.5895 c 7.13815,-29.75514 -2.64201,-61.05054 -25.65057,-82.079102 -16.69669,-15.259806 -32.9297,-21.556405 -55.52039,-21.535649 -20.51954,0.01893 -31.73625,3.164655 -47.95237,13.448615 -9.40756,5.966107 -12.13062,8.99877 -9.9964,11.132996 6.15856,6.15855 129.86781,92.33834 132.78244,92.50044 1.6861,0.0938 4.53788,-5.9665 6.33729,-13.4673 z"
       id="path4178"
       inkscape:connector-curvature="0" />
  </g>
</svg>
